<?xml version="1.0" encoding="UTF-8" standalone="no"?>
<!-- Generator: Adobe Illustrator 15.1.0, SVG Export Plug-In . SVG Version: 6.00 Build 0)  -->

<svg
   xmlns:dc="http://purl.org/dc/elements/1.1/"
   xmlns:cc="http://creativecommons.org/ns#"
   xmlns:rdf="http://www.w3.org/1999/02/22-rdf-syntax-ns#"
   xmlns:svg="http://www.w3.org/2000/svg"
   xmlns="http://www.w3.org/2000/svg"
   xmlns:sodipodi="http://sodipodi.sourceforge.net/DTD/sodipodi-0.dtd"
   xmlns:inkscape="http://www.inkscape.org/namespaces/inkscape"
   version="1.0"
   id="Layer_1"
   x="0px"
   y="0px"
   width="721"
   height="433"
   viewBox="0 0 721 433"
   enable-background="new 0 0 792 612"
   xml:space="preserve"
   inkscape:version="0.48.4 r9939"
   sodipodi:docname="Logo_HTML_CSS.svg"><metadata
     id="metadata49"><rdf:RDF><cc:Work
         rdf:about=""><dc:format>image/svg+xml</dc:format><dc:type
           rdf:resource="http://purl.org/dc/dcmitype/StillImage" /></cc:Work></rdf:RDF></metadata><defs
     id="defs47" /><sodipodi:namedview
     pagecolor="#ffffff"
     bordercolor="#666666"
     borderopacity="1"
     objecttolerance="10"
     gridtolerance="10"
     guidetolerance="10"
     inkscape:pageopacity="0"
     inkscape:pageshadow="2"
     inkscape:window-width="1920"
     inkscape:window-height="1037"
     id="namedview45"
     showgrid="false"
     inkscape:zoom="0.38562092"
     inkscape:cx="51.101695"
     inkscape:cy="98.542373"
     inkscape:window-x="0"
     inkscape:window-y="25"
     inkscape:window-maximized="1"
     inkscape:current-layer="layer4" /><g
     inkscape:groupmode="layer"
     id="layer4"
     inkscape:label="Calque#1"
     style="display:inline"
     transform="translate(0,-179)"><rect
       style="fill:#f2f2f2;fill-opacity:1;stroke:#dbe2e2;stroke-width:0.66401619;stroke-opacity:0"
       id="rect3141"
       width="744.59015"
       height="516.38684"
       x="-5.3544226"
       y="134.67946" /><g
       style="display:inline"
       transform="matrix(0.99995808,0,0,1.1030166,-35.849267,68.396705)"
       id="g3"><polygon
         style="fill:#e44f26"
         points="48.313,163.646 345.763,163.646 318.665,467.217 196.856,500.986 75.383,467.266 "
         id="polygon5" /><polygon
         style="fill:#f1662a"
         points="295.465,447.887 318.623,188.471 197.038,188.471 197.038,475.175 "
         id="polygon7" /><polygon
         style="fill:#ebebeb"
         points="147.763,301.08 144.359,262.948 197.038,262.948 197.038,225.709 196.909,225.709 103.663,225.709 104.555,235.7 113.707,338.316 197.038,338.316 197.038,301.08 "
         id="polygon9" /><polygon
         style="fill:#ebebeb"
         points="196.866,436.58 197.038,436.532 197.038,397.788 196.875,397.834 155.403,386.635 152.751,356.937 132.6,356.937 115.371,356.937 120.588,415.404 "
         id="polygon11" /><path
         style="fill:#010101"
         inkscape:connector-curvature="0"
         d="m 75.988,81.135 h 18.924 v 18.696 h 17.311 V 81.135 h 18.925 v 56.618 h -18.924 v -18.958 h -17.31 v 18.958 H 75.988 l 0,-56.618 0,0 z"
         id="path13" /><path
         style="fill:#010101"
         inkscape:connector-curvature="0"
         d="m 156.032,99.91 h -16.66 V 81.135 h 52.252 V 99.91 h -16.667 v 37.843 H 156.033 V 99.91 h -10e-4 z"
         id="path15" /><path
         style="fill:#010101"
         inkscape:connector-curvature="0"
         d="m 199.917,81.135 h 19.733 l 12.137,19.894 12.127,-19.894 h 19.739 v 56.618 H 244.807 V 109.69 l -13.021,20.13 h -0.325 l -13.028,-20.13 v 28.063 H 199.916 V 81.135 z"
         id="path17" /><path
         style="fill:#010101"
         inkscape:connector-curvature="0"
         d="M 273.071,81.135 H 292 v 37.903 h 26.612 v 18.714 H 273.07 V 81.135 z"
         id="path19" /><polygon
         style="fill:#ffffff"
         points="196.909,301.08 196.909,338.316 242.763,338.316 238.441,386.61 196.909,397.82 196.909,436.562 273.249,415.404 273.808,409.114 282.559,311.079 283.467,301.08 273.433,301.08 "
         id="polygon21" /><polygon
         style="fill:#ffffff"
         points="196.909,248.837 196.909,262.856 196.909,262.948 286.736,262.948 286.736,262.948 286.856,262.948 287.603,254.578 289.299,235.7 290.19,225.709 196.909,225.709 "
         id="polygon23" /></g><g
       style="display:inline"
       transform="matrix(0.99995808,0,0,1.1030166,-35.849267,68.396705)"
       id="g25"><path
         style="fill:#131313"
         inkscape:connector-curvature="0"
         d="m 685.164,96.681 h -24.688 l 25.674,27.859 v 13.261 h -52.882 v -15.526 h 25.669 l -25.669,-27.86 v -13.28 h 51.896 v 15.546 l 0,0 z m -62.378,0 h -24.688 l 25.673,27.859 v 13.261 h -52.882 v -15.526 h 25.672 l -25.672,-27.86 v -13.28 h 51.897 v 15.546 z m -61.768,0.631 h -26.64 v 24.313 h 26.64 v 16.176 H 515.444 V 81.135 h 45.574 v 16.177 z"
         id="path27" /></g><polygon
       transform="matrix(0.99995808,0,0,1.1030166,-35.849267,68.396705)"
       style="fill:#1572b6;display:inline"
       points="452.071,163.67 749.521,163.67 722.425,467.241 600.614,501.011 479.142,467.29 "
       id="polygon29" /><polygon
       transform="matrix(0.99995808,0,0,1.1030166,-35.849267,68.396705)"
       style="fill:#33a9dc;display:inline"
       points="699.225,447.911 722.382,188.496 600.798,188.496 600.798,475.199 "
       id="polygon31" /><g
       style="display:inline"
       transform="matrix(0.99995808,0,0,1.1030166,-35.849267,68.396705)"
       id="g33"><polygon
         style="fill:#ffffff"
         points="650.072,298.496 653.475,260.364 600.797,260.364 600.797,223.125 600.926,223.125 694.172,223.125 693.279,233.116 684.127,335.732 600.797,335.732 600.797,298.496 "
         id="polygon35" /><polygon
         style="fill:#ebebeb"
         points="600.848,433.996 601.02,433.948 601.02,395.204 600.857,395.25 559.385,384.051 556.733,354.353 536.582,354.353 519.354,354.353 524.57,412.82 "
         id="polygon37" /><polygon
         style="fill:#ffffff"
         points="677.23,412.82 677.79,406.53 684.268,334.156 646.907,334.156 642.423,384.026 600.891,395.236 600.891,433.978 "
         id="polygon39" /><polygon
         style="fill:#ebebeb"
         points="600.926,246.253 600.926,260.272 600.926,260.364 511.098,260.364 511.098,260.364 510.979,260.364 510.232,251.994 508.535,233.116 507.645,223.125 600.926,223.125 "
         id="polygon41" /><polygon
         style="fill:#ebebeb"
         points="600.797,321.629 600.797,335.646 600.797,335.738 559.969,335.738 559.969,335.738 559.85,335.738 559.104,327.369 557.406,308.491 556.516,298.5 600.797,298.5 "
         id="polygon43" /></g></g><g
     inkscape:groupmode="layer"
     id="layer1"
     inkscape:label="Calque"
     style="display:inline"
     transform="translate(0,-179)" /></svg>